<svg width="818" height="1125" viewBox="0 0 818 1125" fill="none" xmlns="http://www.w3.org/2000/svg">
<path d="M61.493 1056.56C61.493 1054.03 62.7588 1047.66 66.2591 1024.8C68.9739 1007.07 71.6582 976.621 68.8579 871.411C66.0577 766.202 57.1967 587.083 53.2649 490.38C49.3331 393.676 50.599 384.815 51.5675 355.25C52.5361 325.684 53.169 275.683 52.8621 231.886C52.5553 188.09 51.2894 152.013 51.2702 130.263C51.2455 102.157 54.4541 93.1314 55.413 91.1943C57.367 87.2472 59.5367 121.652 67.8222 164.077C71.8022 184.456 77.3737 202.072 91.3748 233.037C105.376 264.003 128.161 307.675 149.71 345.363C171.258 383.05 190.879 413.431 206.05 435.411C230.415 470.711 244.313 488.155 251.947 500.89C271.972 534.3 280.773 540.611 282.682 544.121C283.663 545.926 285.856 546.998 286.834 543.852C290.037 533.554 289.711 514.527 297.652 480.819C303.093 457.72 313.82 423.059 331.062 376.328C348.305 329.597 372.356 272.001 390.126 225.557C407.896 179.114 418.656 145.568 426.414 124.49C443.416 78.2973 455.941 59.2602 460.093 51.5788C461.119 49.6811 461.695 47.7525 461.704 73.3572C461.714 98.962 461.081 152.128 461.704 192.808C462.328 233.488 464.227 260.071 466.787 281.677C469.347 303.282 472.512 319.106 482.687 350.992C492.862 382.878 509.951 430.347 523.501 463.662C537.051 496.977 546.545 514.699 552.702 527.31C569.526 561.77 581.222 584.053 586.036 589.222C587.41 590.697 590.16 583.554 593.679 563.866C597.199 544.178 601.629 509.367 605.177 487.004C610.162 455.586 620.828 430.827 633.592 403.055C639.139 390.986 643.824 383.511 651.487 366.623C659.149 349.735 669.909 323.785 676.401 305.67C686.136 278.506 689.28 260.052 695.648 231.762C700.133 211.835 704.547 180.053 707.156 161.219C712.047 125.901 714.866 109.127 719.651 100.17C724.476 91.1389 744.172 83.58 757.042 75.5341C761.029 73.0414 761.549 89.1996 761.232 101.647C761.093 107.14 760.283 110.93 758.691 174.913C757.099 238.896 754.568 362.95 751.997 461.035C749.427 559.119 746.896 627.475 744.958 665.854C742.699 710.619 740.451 720.247 740.135 727.257C739.759 735.579 738.533 748.326 740.116 775.667C741.224 794.813 744.863 824.527 746.493 843.332C748.723 869.055 749.389 881.337 752.256 895.654C760.314 935.89 758.979 949.118 761.223 960.606C764.912 979.491 763.467 988.743 765.059 1002.16C767.627 1023.81 767.955 1037.36 765.088 1040.56C750.466 1056.84 705.986 1050.81 680.582 1051.44C660.871 1051.93 627.33 1053.34 607.201 1054.62C587.072 1055.91 581.376 1057.18 567.998 1059.41C554.62 1061.64 533.733 1064.81 489.429 1066.44C445.124 1068.07 378.033 1068.07 339.358 1067.44C292.422 1066.67 279.546 1064.23 271.251 1063.92C264.163 1063.65 248.935 1062.32 229.449 1062C199.72 1061.52 159.999 1061.66 143.706 1062.63C132.402 1063.3 120.988 1065.5 107.591 1068.69C85.0812 1074.06 72.4254 1075.74 63.7562 1073.2C62.1451 1071.92 60.8792 1070.03 60.5436 1068.1C60.2079 1066.17 60.8409 1064.27 61.493 1060.4" stroke="#FCDF03" stroke-width="100" stroke-linecap="round"/>
</svg>
