<svg width="818" height="1125" viewBox="0 0 818 1125" fill="none" xmlns="http://www.w3.org/2000/svg">
<path d="M61.5147 1056.89C61.5147 1054.36 62.7806 1047.99 66.2808 1025.13C68.9956 1007.4 71.6799 976.949 68.8797 871.74C66.0795 766.53 57.2185 587.411 53.2866 490.708C49.3548 394.004 50.6207 385.143 51.5893 355.578C52.5578 326.012 53.1907 276.011 52.8839 232.214C52.577 188.418 51.3111 152.341 51.292 130.591C51.2672 102.485 54.4758 93.4596 55.4348 91.5224C57.3887 87.5754 59.5584 121.98 67.844 164.405C71.8239 184.784 77.3954 202.4 91.3965 233.365C105.398 264.331 128.183 308.003 149.731 345.691C171.28 383.379 190.9 413.759 206.071 435.739C230.437 471.04 244.335 488.483 251.968 501.218C271.994 534.628 280.795 540.939 282.704 544.449C283.685 546.254 285.878 547.326 286.856 544.181C290.059 533.882 289.733 514.855 297.673 481.147C303.114 458.049 313.842 423.387 331.084 376.656C348.327 329.925 372.378 272.329 390.148 225.885C407.918 179.442 418.677 145.897 426.436 124.818C443.437 78.6255 455.963 59.5884 460.115 51.9069C461.141 50.0092 461.717 48.0806 461.726 73.6854C461.736 99.2902 461.103 152.456 461.726 193.136C462.349 233.816 464.248 260.399 466.809 282.005C469.369 303.611 472.534 319.434 482.709 351.32C492.883 383.206 509.972 430.676 523.523 463.991C537.073 497.306 546.567 515.027 552.724 527.638C569.548 562.098 581.244 584.381 586.058 589.55C587.432 591.025 590.182 583.882 593.701 564.194C597.221 544.507 601.651 509.696 605.199 487.332C610.184 455.914 620.85 431.155 633.614 403.383C639.161 391.314 643.846 383.839 651.508 366.951C659.171 350.064 669.93 324.114 676.423 305.998C686.158 278.834 689.302 260.38 695.669 232.09C700.155 212.163 704.569 180.382 707.177 161.547C712.069 126.229 714.887 109.455 719.673 100.498C724.498 91.467 744.194 83.9081 757.063 75.8623C761.051 73.3695 761.571 89.5277 761.254 101.975C761.115 107.468 760.305 111.258 758.713 175.241C757.121 239.225 754.589 363.278 752.019 461.363C749.449 559.447 746.917 627.804 744.98 666.182C742.721 710.947 740.473 720.575 740.157 727.586C739.781 735.907 738.555 748.654 740.137 775.995C741.245 795.141 744.884 824.855 746.515 843.661C748.745 869.383 749.411 881.665 752.278 895.983C760.336 936.218 759.001 949.446 761.245 960.934C764.933 979.819 763.489 989.071 765.081 1002.49C767.649 1024.13 767.977 1037.69 765.109 1040.88C750.488 1057.17 706.007 1051.14 680.604 1051.77C660.893 1052.26 627.352 1053.67 607.223 1054.95C587.094 1056.24 581.397 1057.5 568.02 1059.74C554.642 1061.97 533.755 1065.14 489.45 1066.77C445.145 1068.4 378.055 1068.4 339.379 1067.76C292.443 1067 279.568 1064.56 271.273 1064.25C264.185 1063.97 248.957 1062.64 229.471 1062.33C199.741 1061.84 160.021 1061.99 143.728 1062.96C132.424 1063.63 121.01 1065.83 107.613 1069.02C85.103 1074.39 72.4471 1076.07 63.7779 1073.53C62.1668 1072.25 60.901 1070.35 60.5653 1068.43C60.2297 1066.5 60.8626 1064.6 61.5147 1060.73" stroke="#E6E6E6" stroke-width="100" stroke-linecap="round"/>
</svg>
